<svg xmlns="http://www.w3.org/2000/svg" viewBox="0 0 320 80" role="img" aria-label="NONATO SERVICE">
  <defs>
    <linearGradient id="g" x1="0%" y1="0%" x2="100%" y2="0%">
      <stop offset="0%" stop-color="#22c55e"/>
      <stop offset="100%" stop-color="#4ade80"/>
    </linearGradient>
  </defs>
  <rect x="2" y="8" width="64" height="64" rx="14" fill="#111114" stroke="url(#g)" stroke-width="2.5"/>

  <!-- Bíblia fechada (mini) -->
  <g transform="translate(10, 18)">
    <rect x="0" y="0" width="5" height="44" rx="1.5" fill="#15803d"/>
    <rect x="5" y="0" width="24" height="44" rx="3" fill="#22c55e" stroke="#86efac" stroke-width="1.2"/>
    <rect x="14" y="12" width="2.5" height="20" rx="1" fill="#86efac"/>
    <rect x="10" y="19" width="11" height="2.5" rx="1" fill="#86efac"/>
    <rect x="27" y="3" width="2" height="38" rx="1" fill="#e5e7eb"/>
  </g>

  <!-- Bíblia aberta (mini) -->
  <g transform="translate(38, 18)">
    <path d="M14 0 L14 44 L0 44 L0 4 Q7 0 14 0 Z" fill="#f1f5f9"/>
    <path d="M14 0 Q21 0 28 4 L28 44 L14 44 Z" fill="#ffffff"/>
    <rect x="12" y="0" width="4" height="44" rx="1" fill="#15803d"/>
    <line x1="3" y1="10" x2="10" y2="10" stroke="#cbd5e1" stroke-width="1.5" stroke-linecap="round"/>
    <line x1="3" y1="15" x2="10" y2="15" stroke="#cbd5e1" stroke-width="1.5" stroke-linecap="round"/>
    <line x1="3" y1="20" x2="10" y2="20" stroke="#cbd5e1" stroke-width="1.5" stroke-linecap="round"/>
    <line x1="18" y1="10" x2="25" y2="10" stroke="#cbd5e1" stroke-width="1.5" stroke-linecap="round"/>
    <line x1="18" y1="15" x2="25" y2="15" stroke="#cbd5e1" stroke-width="1.5" stroke-linecap="round"/>
    <line x1="18" y1="20" x2="25" y2="20" stroke="#cbd5e1" stroke-width="1.5" stroke-linecap="round"/>
    <path d="M0 40 L14 40 L14 44 L0 44 Z" fill="#22c55e"/>
    <path d="M14 40 L28 40 L28 44 L14 44 Z" fill="#22c55e"/>
  </g>

  <text x="84" y="46" font-family="Segoe UI, system-ui, sans-serif" font-size="28" font-weight="800" fill="#ffffff">NONATO</text>
  <text x="84" y="66" font-family="Segoe UI, system-ui, sans-serif" font-size="11" font-weight="700" fill="#4ade80" letter-spacing="0.38em">SERVICE</text>
</svg>
